<?xml version="1.0" encoding="utf-8"?>
<!-- Generator: Adobe Illustrator 22.1.0, SVG Export Plug-In . SVG Version: 6.00 Build 0)  -->
<svg version="1.1" id="Layer_1" xmlns="http://www.w3.org/2000/svg" xmlns:xlink="http://www.w3.org/1999/xlink" x="0px" y="0px"
	 viewBox="0 0 716.1 655.5" style="enable-background:new 0 0 716.1 655.5;" xml:space="preserve">
<style type="text/css">
	.st0{fill:#FFFFFF;}
</style>
<image style="display:none;overflow:visible;" width="800" height="797" xlink:href="Image-1.jpg"  transform="matrix(1 0 0 1 -31.67 -101.5)">
</image>
<path class="st0" d="M712.5,195.7L610.3,433.3c-7,16.2-22.9,26.7-40.6,26.7H256.9c-19.5,0-37-13.1-42.5-31.9L103.7,47H23.3v-0.2
	C10.5,46.8,0,36.4,0,23.5S10.5,0.2,23.3,0.2V0h82.5c19.5,0,37,13.1,42.5,31.9L259,413h308.9l99.8-232H325.2v0h0
	c-12.9,0-23.3-10.4-23.3-23.3c0-12.9,10.4-23.3,23.3-23.3h0V134h346.7c14.9,0,28.7,7.4,36.9,19.9C717,166.4,718.4,182,712.5,195.7z"
	/>
<circle class="st0" cx="214.9" cy="596.8" r="58.7"/>
<circle class="st0" cx="599.6" cy="596.8" r="58.7"/>
</svg>
