<?xml version="1.0" encoding="utf-8"?>
<!-- Generator: Adobe Illustrator 22.1.0, SVG Export Plug-In . SVG Version: 6.00 Build 0)  -->
<svg version="1.1" id="Layer_1" xmlns="http://www.w3.org/2000/svg" xmlns:xlink="http://www.w3.org/1999/xlink" x="0px" y="0px"
	 viewBox="0 0 69.5 90.8" style="enable-background:new 0 0 69.5 90.8;" xml:space="preserve">
<style type="text/css">
	.st0{fill:#F78320;}
</style>
<path class="st0" d="M48.6,90.8H20.7V72.8c0,0-1.2-15-8.3-23.7l-7-13.2c0,0-7.9-16.8-4.5-20.5c2.9-3.2,7.8,10.3,7.8,10.3
	s8.7,18.4,5.3,1.4c-1.7-8.3-3.5-17,0.4-20.1s6.1,13.3,6.1,13.3s3.8,21.8,5.5,6.8c1.1-9.2-1.6-24.6,2.6-26.8s4.9,6,4.9,8.8
	s1,13.1,1,13.1s0.6,21,5.9-3.6c0,0,2.1-13.3,7.6-17.1c6.5-4.4,1.3,21,1.3,21L47,34.5c0,0-2.7,15.3,14.4-0.6c0,0,13.4-11,5.7,2.9
	c-3.6,6.4-12.1,18.4-12.1,18.4s-7,8.6-6.9,19.2C48.3,80.7,48.5,87.5,48.6,90.8z"/>
</svg>
