<?xml version="1.0" encoding="utf-8"?>
<!-- Generator: Adobe Illustrator 22.1.0, SVG Export Plug-In . SVG Version: 6.00 Build 0)  -->
<svg version="1.1" id="Layer_1" xmlns="http://www.w3.org/2000/svg" xmlns:xlink="http://www.w3.org/1999/xlink" x="0px" y="0px"
	 viewBox="0 0 68.1 91.4" style="enable-background:new 0 0 68.1 91.4;" xml:space="preserve">
<style type="text/css">
	.st0{fill:#333366;stroke:#000000;stroke-width:3;stroke-miterlimit:10;}
</style>
<path class="st0" d="M8.2,14.2l-6.7,7.3v53.4c0,4.3,10.5,7.7,23.4,7.7c4.2,0,8.1-0.4,11.5-1l9.9-9.3l2-37.1V21.5l-7.9-7.3"/>
<path class="st0" d="M8.2,6.7v6c0,2.9,7.4,5.2,16.5,5.2s16.5-2.3,16.5-5.2v-6"/>
<ellipse class="st0" cx="24.7" cy="6.7" rx="16.5" ry="5.2"/>
<path class="st0" d="M65.6,46.8v31.3v4.4c0,4.1-6.5,7.3-14.6,7.3s-14.6-3.3-14.6-7.3v-4.4V46.8"/>
<path class="st0" d="M66.6,39.7v4.4c0,4.1-7,7.3-15.6,7.3s-15.6-3.3-15.6-7.3v-4.4"/>
<ellipse class="st0" cx="51" cy="39.7" rx="15.6" ry="4.5"/>
</svg>
