<?xml version="1.0" standalone="no"?>
<!DOCTYPE svg PUBLIC "-//W3C//DTD SVG 20010904//EN">
<svg version="1.0" xmlns="http://www.w3.org/2000/svg"
 width="741.000000pt" height="741.000000pt" viewBox="0 0 741.000000 741.000000"
 preserveAspectRatio="xMidYMid meet">
<metadata>
Created by potrace 1.11, written by Peter Selinger 2001-2013
</metadata>
<g transform="translate(0.000000,741.000000) scale(0.100000,-0.100000)"
fill="#000000" stroke="none">
<path d="M3723 7356 c3 -8 -1 -17 -9 -20 -8 -3 -14 -9 -13 -13 2 -16 -14 -53
-23 -53 -6 0 -8 -9 -5 -20 3 -11 1 -20 -4 -20 -5 0 -9 -9 -9 -21 0 -11 -4 -17
-10 -14 -5 3 -10 -3 -10 -14 0 -12 -5 -21 -11 -21 -5 0 -8 -4 -4 -9 3 -5 1
-12 -5 -16 -5 -3 -10 -15 -10 -27 0 -11 -9 -33 -21 -49 -11 -16 -17 -29 -13
-29 3 0 2 -6 -4 -12 -5 -7 -13 -28 -17 -45 -3 -18 -10 -33 -15 -33 -8 0 -22
-34 -23 -60 -1 -8 -4 -17 -8 -20 -13 -10 -39 -70 -39 -90 0 -11 -4 -20 -10
-20 -5 0 -10 -9 -10 -19 0 -11 -5 -23 -10 -26 -6 -4 -8 -10 -5 -15 3 -4 -2
-11 -10 -14 -8 -3 -14 -9 -14 -13 2 -9 -5 -29 -35 -93 -11 -25 -21 -49 -22
-55 -5 -27 -17 -55 -25 -55 -5 0 -9 -9 -9 -20 0 -11 -5 -20 -11 -20 -6 0 -8
-9 -4 -20 3 -11 2 -20 -2 -20 -5 0 -15 -16 -23 -35 -8 -19 -17 -35 -20 -35 -4
0 -6 -10 -6 -22 1 -20 -4 -23 -44 -23 -25 0 -48 -5 -52 -11 -4 -6 -23 -9 -42
-8 -20 2 -36 -1 -36 -5 0 -5 -15 -8 -33 -8 -18 1 -38 -3 -45 -7 -13 -8 -27
-11 -94 -22 -21 -3 -38 -10 -38 -15 0 -4 -9 -6 -20 -4 -11 2 -20 0 -20 -6 0
-5 -16 -9 -35 -9 -19 0 -35 -4 -35 -10 0 -5 -11 -10 -24 -10 -14 0 -28 -5 -31
-10 -4 -6 -10 -8 -15 -5 -9 6 -14 4 -78 -28 -19 -9 -39 -17 -46 -17 -18 0 -66
-24 -66 -33 0 -5 -4 -6 -9 -2 -10 6 -124 -45 -129 -57 -2 -5 -12 -8 -23 -8
-10 0 -19 -5 -19 -12 0 -6 -3 -8 -7 -5 -3 4 -15 0 -25 -10 -10 -9 -18 -13 -18
-9 0 4 -15 -3 -32 -16 -18 -13 -35 -22 -38 -22 -10 2 -55 -21 -74 -38 -10 -10
-23 -15 -28 -12 -4 3 -8 0 -8 -5 0 -6 -9 -11 -21 -11 -11 0 -18 -4 -15 -9 5
-8 -15 -22 -35 -25 -3 -1 -13 -9 -22 -18 -10 -9 -26 -20 -37 -23 -11 -3 -20
-11 -20 -16 0 -5 -6 -9 -14 -9 -8 0 -16 -4 -18 -8 -1 -4 -20 -18 -40 -31 -21
-12 -38 -27 -38 -32 0 -5 -6 -9 -13 -9 -8 0 -24 -11 -37 -25 -13 -14 -29 -25
-35 -25 -6 0 -22 -13 -35 -30 -14 -16 -30 -29 -36 -30 -11 0 -214 -198 -214
-209 -1 -3 -19 -19 -40 -36 -21 -16 -39 -36 -40 -42 0 -7 -4 -13 -9 -13 -11 0
-63 -54 -64 -66 -1 -5 -19 -27 -41 -49 -23 -22 -45 -48 -51 -56 -35 -57 -92
-137 -109 -151 -10 -10 -16 -18 -12 -18 6 0 -37 -63 -54 -80 -6 -6 -41 -69
-71 -130 -13 -25 -27 -47 -32 -49 -8 -3 -30 -52 -27 -60 1 -2 -2 -7 -7 -10 -9
-6 -41 -69 -43 -86 -1 -5 -7 -13 -14 -17 -8 -5 -11 -18 -8 -34 3 -17 1 -25 -5
-21 -6 4 -14 -3 -18 -16 -4 -12 -8 -24 -10 -27 -2 -5 -7 -20 -22 -57 -3 -10
-5 -22 -4 -26 0 -4 -6 -10 -14 -13 -8 -3 -12 -11 -9 -16 4 -5 2 -20 -3 -31
-32 -71 -43 -100 -43 -117 0 -11 -5 -20 -11 -20 -6 0 -9 -6 -6 -12 2 -7 -1
-26 -8 -43 -6 -16 -10 -36 -7 -44 3 -8 0 -11 -7 -7 -7 5 -11 -1 -11 -16 0 -40
-3 -58 -11 -58 -4 0 -6 -11 -3 -25 2 -14 0 -25 -6 -25 -5 0 -10 -15 -10 -34 0
-19 -4 -37 -9 -40 -5 -3 -7 -19 -6 -36 1 -16 -3 -34 -10 -40 -7 -6 -11 -25 -8
-46 2 -20 0 -41 -5 -48 -5 -6 -9 -31 -8 -56 0 -25 -4 -50 -9 -56 -6 -6 -10
-50 -9 -98 1 -47 -3 -89 -7 -92 -12 -7 -12 -374 -1 -374 5 0 8 -35 7 -77 -1
-43 3 -84 8 -91 6 -7 10 -40 9 -72 0 -33 3 -60 8 -60 5 0 8 -17 7 -37 -1 -21
2 -44 7 -51 4 -7 10 -27 12 -45 10 -77 17 -107 24 -107 4 0 6 -10 6 -23 -1
-12 1 -26 5 -32 3 -5 9 -26 13 -45 6 -38 8 -42 23 -80 6 -14 9 -28 6 -33 -2
-4 1 -7 6 -7 6 0 11 -11 11 -24 0 -14 5 -28 11 -31 6 -4 8 -13 5 -20 -3 -8 1
-19 9 -25 7 -6 11 -20 8 -30 -3 -12 0 -20 7 -20 7 0 10 -7 6 -15 -3 -9 0 -15
10 -15 10 0 14 -6 11 -14 -3 -8 2 -30 11 -48 9 -18 17 -37 18 -43 3 -19 68
-150 76 -153 4 -2 8 -8 8 -14 0 -15 43 -102 53 -106 4 -2 7 -12 7 -23 0 -10 5
-19 10 -19 6 0 10 -9 10 -19 0 -10 7 -21 15 -25 8 -3 15 -12 15 -21 0 -8 5
-15 11 -15 5 0 7 -4 4 -10 -3 -5 3 -17 15 -27 11 -10 20 -23 20 -31 0 -7 7
-15 15 -18 8 -4 13 -9 10 -14 -2 -4 5 -16 15 -28 22 -24 26 -72 8 -90 -7 -7
-9 -12 -4 -12 4 0 -6 -24 -23 -54 -16 -30 -27 -57 -24 -60 4 -3 2 -6 -4 -6 -9
0 -28 -54 -24 -72 0 -5 -4 -8 -9 -8 -6 0 -10 -7 -10 -15 0 -8 -5 -15 -11 -15
-6 0 -9 -6 -6 -12 2 -7 -9 -39 -25 -70 -16 -32 -26 -62 -23 -68 3 -5 3 -10 -2
-10 -8 0 -41 -63 -48 -90 -8 -37 -18 -60 -25 -60 -5 0 -12 -15 -15 -33 -4 -17
-12 -38 -17 -44 -6 -7 -7 -13 -2 -13 5 0 4 -4 -2 -8 -10 -7 -42 -70 -43 -85 0
-4 -7 -20 -15 -36 -9 -16 -12 -31 -9 -35 4 -3 1 -6 -5 -6 -7 0 -12 -7 -12 -15
0 -8 -5 -15 -11 -15 -6 0 -8 -7 -5 -16 3 -8 -2 -26 -11 -40 -14 -22 -14 -27
-3 -34 9 -5 20 -4 27 2 7 6 13 7 13 2 0 -5 97 -9 216 -8 l215 0 18 40 c45 96
54 119 53 126 -1 5 2 8 6 8 4 0 14 20 21 45 7 25 17 45 22 45 5 0 6 7 3 15 -4
8 -2 15 4 15 5 0 13 16 16 35 4 19 11 35 16 35 6 0 10 9 10 20 0 11 5 20 11
20 6 0 9 6 6 14 -3 7 3 28 14 45 10 17 19 38 19 47 0 8 6 17 13 20 7 2 14 16
15 31 1 14 4 29 7 31 3 3 43 -34 89 -81 46 -48 87 -87 91 -87 7 0 63 -47 143
-121 19 -17 36 -28 39 -25 3 3 14 -3 23 -14 20 -23 87 -70 100 -70 4 0 10 -4
12 -8 2 -4 27 -23 56 -42 28 -18 52 -37 52 -42 0 -5 5 -6 11 -2 6 3 14 3 18
-2 8 -12 42 -33 64 -40 9 -4 17 -10 17 -15 0 -5 9 -9 19 -9 11 0 21 -3 23 -7
4 -10 91 -53 106 -53 6 0 12 -5 14 -11 2 -5 10 -12 18 -13 31 -7 80 -31 80
-39 0 -4 4 -5 10 -2 6 3 10 1 10 -4 0 -6 9 -11 20 -11 11 0 20 -4 20 -10 0 -5
8 -10 18 -10 11 0 33 -7 51 -16 17 -9 37 -17 44 -18 7 -2 21 -6 32 -10 11 -5
27 -10 35 -14 8 -3 18 -4 23 -4 4 1 7 -2 7 -8 0 -5 11 -10 25 -10 14 0 25 -4
25 -10 0 -5 10 -8 23 -6 12 2 34 -3 49 -10 15 -8 29 -14 30 -14 2 1 10 -1 18
-4 18 -5 70 -16 88 -18 6 -1 12 -5 12 -10 0 -4 18 -8 39 -8 22 0 42 -4 46 -9
3 -5 20 -8 38 -7 17 2 35 -2 38 -7 4 -5 22 -10 40 -11 19 -1 39 -4 44 -7 6 -4
32 -6 59 -6 26 0 51 -4 55 -9 8 -11 86 -15 415 -20 142 -3 263 -1 270 4 6 5
43 8 81 8 39 -1 73 2 76 7 3 4 28 9 55 9 27 1 54 5 59 8 6 4 28 7 50 6 22 -1
43 3 46 8 4 5 20 10 35 11 16 1 36 4 44 8 8 3 29 8 45 11 55 11 76 16 118 31
23 7 59 17 80 20 20 4 40 11 43 16 3 5 16 9 29 9 13 0 27 5 30 10 4 6 12 9 18
8 7 -1 21 3 32 9 11 6 25 12 30 14 6 1 18 4 28 7 9 2 17 9 17 14 0 5 4 7 9 3
10 -6 62 14 72 29 4 5 12 5 18 2 6 -4 11 -3 11 2 0 5 13 12 29 15 16 3 35 12
42 20 8 7 20 12 27 9 6 -2 12 0 12 5 0 5 16 15 35 23 19 8 35 17 35 22 0 4 7
5 15 2 8 -4 15 -2 15 4 0 8 18 17 43 20 5 0 16 9 25 20 9 10 28 23 42 27 14 4
33 17 42 27 9 11 19 19 22 19 20 -1 100 49 118 74 4 5 8 6 8 1 0 -5 10 0 23
12 12 11 24 20 27 19 3 -1 18 10 33 23 16 14 30 24 32 23 3 -1 17 9 32 23 97
87 118 104 125 104 5 0 55 47 112 105 57 58 106 105 109 105 4 0 9 -12 16 -45
1 -5 9 -17 17 -26 8 -9 11 -19 7 -22 -3 -4 -1 -7 6 -7 6 0 11 -6 10 -12 -3
-17 33 -98 44 -98 4 0 5 -4 2 -10 -3 -5 2 -24 12 -42 9 -18 16 -37 15 -41 -1
-4 4 -10 12 -13 8 -3 12 -12 9 -20 -3 -8 0 -14 7 -14 8 0 11 -9 8 -25 -4 -18
-1 -25 10 -25 8 0 13 -3 9 -6 -3 -3 3 -22 14 -41 11 -19 17 -38 14 -43 -2 -4
2 -13 10 -20 8 -7 13 -16 10 -20 -3 -4 7 -21 23 -36 l27 -29 228 1 c125 1 230
4 233 6 3 3 -4 22 -15 42 -12 20 -20 40 -19 44 1 4 -12 36 -29 72 -58 126 -67
145 -65 152 1 5 -2 8 -8 8 -5 0 -10 11 -10 25 0 14 -4 25 -10 25 -5 0 -7 7 -4
15 4 8 1 15 -5 15 -6 0 -11 7 -11 15 0 8 -4 15 -10 15 -5 0 -8 10 -7 22 2 12
-5 31 -15 42 -10 11 -16 26 -14 33 3 6 0 13 -5 15 -5 2 -11 13 -12 26 0 12 -5
22 -9 22 -4 0 -8 9 -8 21 0 11 -4 17 -10 14 -5 -3 -10 3 -10 14 0 12 -4 21
-10 21 -5 0 -7 7 -4 15 4 8 1 15 -5 15 -6 0 -11 7 -11 15 0 18 -32 88 -45 97
-5 4 -6 10 -3 14 4 3 -4 28 -18 55 -14 26 -27 54 -28 61 -2 7 -7 22 -11 32 -6
13 -4 21 3 24 7 2 10 7 7 12 -3 5 0 14 7 22 23 25 58 77 58 87 0 6 6 14 13 18
11 7 47 76 46 89 0 3 9 14 21 24 12 10 21 20 21 22 -2 14 13 48 21 48 6 0 8 7
4 15 -3 8 -2 15 2 15 5 0 14 16 22 35 8 19 18 35 24 35 5 0 6 3 3 7 -4 3 -1
13 7 22 8 9 15 18 16 21 6 31 14 50 21 50 4 0 6 9 4 20 -2 11 1 20 7 20 5 0 8
6 5 14 -3 8 1 17 9 20 8 3 14 16 14 28 0 13 7 34 16 46 8 12 13 26 10 31 -3 5
1 14 9 21 7 6 12 17 9 25 -3 7 -1 16 5 20 6 3 11 17 11 30 0 13 5 27 11 31 6
3 9 15 6 25 -3 12 0 19 9 19 8 0 11 6 8 15 -4 8 -1 22 6 30 7 8 10 21 7 29 -3
7 0 22 7 32 7 11 12 27 10 37 -1 9 2 17 7 17 5 0 9 18 9 39 0 22 5 43 11 47 6
3 9 15 6 25 -3 10 0 23 7 28 6 5 10 27 10 48 -1 21 2 43 7 48 4 6 7 26 6 45 0
19 4 44 9 55 6 11 10 50 9 88 -1 37 2 67 7 67 11 0 10 547 0 554 -5 3 -8 35
-8 71 1 38 -4 70 -10 76 -6 5 -9 27 -7 50 3 29 1 39 -8 34 -8 -6 -10 5 -7 39
3 29 1 50 -7 56 -7 6 -11 26 -9 45 1 19 -2 37 -7 41 -5 3 -9 18 -9 34 0 16 -5
32 -11 36 -6 3 -9 17 -6 30 2 13 -2 29 -9 35 -7 6 -10 17 -7 25 3 8 0 14 -7
14 -8 0 -11 10 -8 28 2 16 -2 34 -9 40 -7 7 -10 18 -7 25 3 8 -2 19 -10 26 -8
7 -12 21 -8 33 4 15 2 19 -7 13 -9 -5 -12 -1 -9 12 1 10 -5 31 -14 46 -10 14
-15 33 -12 41 3 9 1 16 -5 16 -6 0 -11 9 -11 20 0 11 -4 20 -10 20 -5 0 -10
11 -10 25 0 14 -5 25 -11 25 -6 0 -9 6 -6 14 3 8 -1 17 -10 20 -9 4 -13 9 -10
13 4 3 0 15 -8 27 -8 11 -15 28 -15 37 0 10 -3 19 -7 21 -5 2 -21 30 -38 63
-16 33 -34 63 -38 66 -5 3 -8 8 -7 10 3 9 -15 46 -42 86 -15 23 -28 48 -28 55
0 8 -9 20 -19 28 -11 7 -18 17 -16 20 3 4 -4 15 -15 25 -11 10 -20 24 -20 32
0 7 -3 13 -8 13 -4 0 -16 16 -26 35 -11 19 -23 35 -28 35 -5 0 -13 11 -18 25
-5 14 -14 25 -20 25 -5 0 -10 7 -10 15 0 8 -4 15 -10 15 -5 0 -10 5 -10 10 0
6 -13 24 -30 40 -16 16 -30 34 -30 39 0 5 -22 31 -50 57 -27 26 -50 52 -50 57
0 11 -195 207 -207 207 -4 0 -33 25 -63 55 -30 30 -58 55 -63 55 -4 0 -18 11
-31 25 -13 14 -28 25 -34 25 -6 0 -20 12 -31 26 -11 14 -24 23 -30 20 -5 -3
-20 6 -33 22 -12 15 -27 29 -33 30 -5 1 -17 7 -26 14 -22 18 -51 37 -69 45 -8
4 -23 15 -32 25 -9 11 -19 19 -22 20 -21 0 -45 12 -50 24 -3 8 -15 14 -26 14
-11 0 -20 4 -20 9 0 5 -11 12 -24 15 -14 3 -31 12 -38 20 -16 15 -152 82 -208
101 -3 1 -31 14 -63 29 -32 15 -63 29 -70 30 -7 1 -23 8 -37 16 -14 7 -25 12
-25 11 0 -3 -37 9 -55 18 -8 4 -23 7 -32 5 -10 -1 -18 3 -18 9 0 7 -10 13 -22
13 -35 2 -71 13 -77 23 -3 5 -18 7 -33 6 -16 -2 -28 1 -28 6 0 5 -13 9 -29 9
-17 0 -32 4 -35 8 -3 5 -20 9 -37 10 -18 0 -35 5 -38 9 -3 5 -17 10 -31 11
-66 5 -120 15 -120 21 0 4 -15 7 -34 6 -40 -2 -71 18 -62 40 3 9 0 18 -9 21
-7 3 -11 12 -8 20 3 8 1 14 -3 14 -13 0 -37 58 -29 70 3 5 1 10 -4 10 -6 0
-11 7 -11 15 0 8 -5 15 -11 15 -6 0 -9 6 -6 14 3 8 -1 17 -8 20 -9 3 -12 12
-8 22 4 12 3 15 -5 10 -8 -5 -12 3 -12 23 0 17 -4 31 -10 31 -5 0 -7 7 -4 15
4 9 0 15 -10 15 -9 0 -15 3 -15 8 1 4 0 9 -1 12 -1 3 -3 12 -5 20 -1 9 -13 38
-26 65 -13 28 -24 52 -24 55 -12 45 -19 60 -27 60 -5 0 -7 4 -4 9 3 5 0 14 -8
20 -8 7 -12 21 -9 31 3 11 1 20 -5 20 -9 0 -25 36 -23 53 1 4 -4 7 -9 7 -5 0
-10 8 -10 17 0 17 -49 123 -61 133 -3 3 -5 13 -3 23 1 10 -4 21 -12 24 -8 3
-11 9 -9 14 3 5 -2 21 -12 36 -10 14 -18 31 -18 37 -1 22 -46 106 -56 106 -6
0 -9 -6 -6 -14z m-673 -1545 c0 -11 -5 -23 -11 -26 -6 -4 -8 -13 -5 -21 3 -8
-1 -14 -9 -14 -9 0 -12 -6 -9 -15 4 -8 1 -15 -5 -15 -6 0 -11 -11 -11 -25 0
-14 -4 -25 -10 -25 -5 0 -9 -3 -8 -7 1 -5 -5 -21 -12 -38 -8 -16 -14 -34 -15
-40 -2 -17 -49 -110 -57 -113 -5 -2 -8 -11 -8 -21 0 -9 -11 -41 -25 -69 -14
-29 -25 -59 -25 -67 0 -8 -4 -15 -9 -15 -5 0 -12 -13 -16 -30 -4 -16 -11 -30
-17 -30 -6 0 -8 -7 -4 -15 3 -8 -1 -20 -8 -27 -7 -7 -11 -19 -8 -26 2 -6 -1
-12 -6 -12 -8 0 -17 -18 -26 -50 -7 -27 -42 -100 -48 -100 -4 0 -5 -6 -2 -14
3 -7 -2 -16 -11 -20 -9 -3 -13 -11 -10 -16 4 -6 -4 -34 -18 -63 -30 -63 -41
-89 -39 -99 1 -5 -2 -8 -7 -8 -8 0 -18 -22 -26 -59 -5 -21 -39 -85 -48 -92 -4
-3 -5 -13 -1 -22 3 -9 2 -17 -4 -17 -5 0 -13 -10 -17 -22 -4 -13 -8 -25 -10
-28 -1 -3 -5 -14 -9 -25 -5 -11 -15 -36 -24 -55 -9 -19 -15 -38 -14 -42 1 -5
-3 -8 -8 -8 -6 0 -10 -7 -10 -15 0 -8 -5 -15 -11 -15 -6 0 -9 -6 -6 -12 2 -7
-9 -39 -25 -70 -15 -32 -28 -60 -28 -63 0 -21 -1 -25 -9 -25 -5 0 -22 5 -38
12 -15 6 -31 11 -35 10 -5 -1 -8 3 -8 8 0 6 -7 10 -15 10 -8 0 -15 4 -15 9 0
5 -18 17 -40 27 -22 10 -40 22 -40 27 0 4 -4 6 -8 3 -5 -3 -19 4 -30 15 -12
10 -24 19 -27 19 -13 -1 -65 32 -65 41 0 6 -4 8 -8 5 -5 -3 -18 4 -30 14 -12
11 -26 20 -31 20 -5 0 -19 12 -30 26 -11 14 -24 23 -29 20 -5 -3 -16 3 -25 12
-9 9 -39 35 -67 57 -73 58 -290 269 -290 282 0 17 57 79 236 258 161 159 231
225 241 225 3 0 18 10 33 23 64 51 94 72 111 79 11 4 19 12 19 18 0 6 4 9 9 6
4 -3 16 3 26 14 10 11 24 20 32 20 7 0 16 7 19 15 4 8 15 15 25 15 10 0 19 3
19 8 0 8 10 14 88 53 28 14 58 31 66 38 8 7 21 14 28 15 7 1 33 11 58 23 43
20 79 34 90 34 3 0 12 7 21 15 9 8 19 11 22 7 4 -3 7 -1 7 5 0 7 11 12 24 12
14 0 28 5 31 10 3 6 13 10 22 10 8 0 30 7 49 16 18 9 39 14 46 12 7 -3 19 2
27 9 7 8 20 12 27 9 8 -3 14 -1 14 4 0 6 11 10 24 10 14 0 27 4 30 9 4 5 17 8
31 6 14 -1 25 2 25 6 0 5 5 9 10 9 6 0 10 -9 10 -19z m1385 10 c3 -6 14 -8 25
-6 11 2 22 0 25 -6 4 -5 19 -9 35 -9 16 0 31 -4 34 -9 4 -5 14 -8 23 -7 10 2
23 -3 31 -10 7 -7 19 -11 27 -8 8 4 15 1 15 -5 0 -6 10 -11 23 -11 13 0 32 -7
43 -15 10 -8 29 -15 42 -15 12 0 22 -5 22 -11 0 -6 6 -9 14 -6 8 3 17 -1 20
-9 3 -9 10 -13 15 -10 5 3 46 -13 92 -36 46 -23 87 -41 92 -40 4 1 7 -2 7 -7
0 -9 38 -24 53 -22 4 1 10 -5 13 -13 3 -8 12 -12 20 -9 8 3 14 -1 14 -8 0 -7
3 -9 6 -6 4 4 20 -5 36 -18 16 -14 35 -25 42 -25 7 0 21 -9 31 -20 10 -11 22
-20 27 -20 9 0 66 -38 83 -56 5 -5 30 -23 55 -40 25 -16 57 -42 73 -58 15 -15
27 -24 27 -20 0 5 29 -21 65 -56 36 -35 65 -61 65 -56 0 10 155 -145 161 -161
2 -6 29 -39 59 -72 30 -32 60 -66 66 -74 27 -33 19 -51 -60 -129 -43 -43 -81
-78 -85 -78 -4 0 -29 -21 -56 -47 -27 -27 -51 -47 -55 -46 -4 1 -22 -14 -40
-32 -19 -19 -40 -35 -47 -35 -8 0 -16 -7 -19 -15 -4 -8 -12 -15 -18 -15 -7 0
-23 -11 -36 -25 -13 -14 -30 -25 -37 -25 -8 0 -16 -7 -19 -15 -4 -8 -15 -15
-25 -15 -10 0 -19 -5 -19 -11 0 -5 -4 -8 -9 -5 -4 3 -16 -3 -26 -14 -10 -11
-24 -20 -31 -20 -7 0 -26 -12 -43 -26 -17 -14 -31 -23 -31 -19 0 3 -12 -2 -27
-13 -28 -19 -51 -29 -67 -30 -5 0 -12 -4 -15 -9 -3 -4 -16 -13 -28 -20 -22
-12 -27 -4 -39 57 -2 8 -7 16 -13 18 -5 2 -7 10 -4 19 4 11 2 14 -5 9 -8 -4
-12 0 -12 11 0 11 -7 28 -15 39 -8 10 -15 29 -15 40 0 12 -9 33 -21 48 -11 14
-17 26 -14 26 4 0 2 7 -5 15 -7 8 -10 22 -6 30 3 9 0 15 -10 15 -8 0 -13 4 -9
9 3 5 1 12 -5 16 -5 3 -10 15 -10 26 0 10 -5 19 -10 19 -6 0 -10 6 -8 13 2 12
-30 87 -42 97 -3 3 -5 12 -5 20 0 8 -7 28 -17 44 -9 16 -15 33 -12 38 3 4 -2
8 -10 8 -9 0 -15 3 -15 8 3 16 -14 72 -22 72 -5 0 -9 8 -9 18 0 10 -7 28 -16
40 -9 13 -13 29 -10 37 3 8 1 15 -4 15 -6 0 -10 7 -10 15 0 8 -4 15 -10 15 -5
0 -10 9 -10 20 0 11 -4 20 -9 20 -6 0 -8 9 -6 20 2 11 0 20 -4 20 -7 0 -22 36
-20 49 0 2 -4 7 -10 10 -6 4 -12 19 -13 34 -1 15 -6 27 -10 27 -4 0 -8 7 -8
15 0 8 -4 15 -10 15 -6 0 -9 3 -8 8 1 8 -4 24 -30 87 -9 22 -19 42 -22 45 -7
6 -22 40 -25 55 0 6 -7 24 -15 40 -7 17 -13 33 -12 38 1 4 -2 7 -8 7 -5 0 -10
11 -10 25 0 14 -4 25 -10 25 -5 0 -10 9 -10 20 0 11 -3 20 -7 20 -13 0 -32 49
-21 52 6 2 5 10 -4 18 -16 16 -32 51 -30 63 1 4 -2 7 -8 7 -5 0 -10 7 -10 15
0 17 16 20 25 6z m-922 -998 c0 -494 -2 -899 -2 -900 -1 -1 -13 2 -28 8 -15 5
-64 10 -110 10 -46 0 -83 4 -83 8 0 5 -21 8 -47 7 -27 -1 -54 3 -62 8 -7 6
-28 12 -45 13 -55 5 -111 15 -121 23 -5 3 -25 6 -42 5 -18 0 -33 3 -33 7 0 4
-16 8 -35 8 -19 0 -35 5 -35 10 0 6 -11 10 -25 10 -14 0 -25 5 -25 11 0 5 -4
8 -9 5 -12 -8 -45 5 -34 13 17 12 50 77 47 94 -1 9 1 17 6 17 8 0 23 38 21 53
-1 4 5 10 13 13 8 3 12 12 10 19 -3 7 -1 16 5 20 6 3 11 15 11 26 0 10 5 19
12 19 6 0 8 3 5 6 -3 4 0 16 8 26 7 11 11 27 8 34 -3 8 0 14 7 14 6 0 9 4 6 9
-3 5 1 14 9 21 8 7 12 16 9 21 -3 5 0 9 5 9 6 0 11 8 11 19 0 10 11 39 25 65
13 25 21 46 17 46 -4 0 1 5 11 11 9 6 15 15 11 20 -3 5 0 16 6 24 7 8 9 15 5
15 -5 0 0 9 9 19 10 11 15 25 11 30 -3 6 0 11 8 11 10 0 13 8 9 25 -2 14 0 25
6 25 10 0 40 73 31 76 -2 1 5 11 15 23 11 12 15 21 11 21 -4 0 0 9 11 21 10
12 18 23 17 25 -3 4 2 21 14 52 3 9 5 20 5 25 -1 4 2 7 7 7 5 0 12 10 16 23 4
12 8 24 9 27 1 3 6 20 10 38 4 18 11 30 16 27 5 -3 11 8 15 25 4 16 11 32 16
35 5 4 9 17 9 31 0 13 5 24 11 24 6 0 9 6 6 14 -3 8 1 17 9 20 9 3 12 10 9 16
-3 5 -1 10 6 10 6 0 9 8 6 20 -3 11 1 23 8 28 8 4 14 12 15 17 2 6 7 21 13 35
6 14 12 30 13 35 6 29 17 55 24 55 4 0 11 12 16 28 10 36 9 33 24 67 7 17 13
33 12 38 -1 4 3 7 8 7 6 0 10 11 10 25 0 14 5 25 11 25 6 0 9 6 6 14 -7 16 4
31 12 17 3 -5 5 -413 4 -908z m467 861 c0 -8 4 -14 10 -14 5 0 7 -7 4 -15 -4
-8 -1 -15 5 -15 6 0 11 -7 11 -15 0 -8 5 -15 11 -15 5 0 7 -4 4 -10 -3 -5 0
-20 7 -32 7 -13 11 -29 9 -37 -1 -8 2 -10 10 -6 7 5 10 3 7 -6 -3 -8 1 -20 8
-27 7 -7 11 -19 8 -27 -4 -8 -2 -15 4 -15 5 0 13 -10 17 -22 4 -13 8 -25 9
-28 2 -3 7 -16 13 -30 6 -14 20 -46 31 -70 11 -25 23 -54 28 -65 4 -11 8 -22
9 -25 2 -3 6 -15 10 -27 4 -13 12 -23 17 -23 6 0 8 -8 6 -18 -3 -10 1 -23 9
-30 7 -7 11 -17 8 -23 -4 -5 -2 -9 3 -9 4 0 14 -16 22 -35 8 -19 18 -35 22
-35 5 0 6 -4 3 -10 -5 -8 8 -42 62 -160 9 -19 16 -38 15 -42 -1 -5 3 -8 9 -8
6 0 9 -6 7 -12 -3 -7 8 -37 24 -66 15 -30 28 -60 28 -68 0 -8 4 -14 10 -14 5
0 7 -7 4 -15 -4 -8 -1 -15 6 -15 7 0 10 -6 7 -14 -3 -8 1 -17 8 -20 8 -3 12
-14 10 -26 -2 -11 -1 -20 3 -20 7 0 46 -81 43 -88 -1 -1 6 -17 16 -35 9 -17
18 -34 18 -37 0 -3 9 -20 18 -37 10 -18 15 -33 12 -33 -3 0 0 -10 7 -22 7 -13
11 -26 10 -30 -1 -5 2 -8 7 -8 8 0 20 -27 25 -55 4 -21 41 -95 48 -95 4 0 5
-7 2 -15 -4 -8 -10 -13 -14 -10 -4 3 -13 -1 -19 -9 -6 -7 -22 -11 -35 -9 -13
3 -27 0 -30 -6 -4 -6 -20 -11 -36 -11 -16 0 -31 -4 -35 -9 -3 -6 -14 -8 -25
-6 -11 2 -22 0 -25 -6 -4 -5 -24 -9 -45 -9 -21 0 -41 -4 -45 -9 -3 -5 -20 -8
-38 -7 -17 2 -41 -2 -52 -7 -11 -6 -39 -10 -62 -9 -23 0 -45 -3 -48 -7 -2 -5
-39 -9 -81 -10 -42 -1 -85 -6 -96 -12 -15 -8 -22 -8 -28 0 -10 17 -8 1781 2
1775 4 -3 8 -12 8 -20z m2213 -1234 c3 -11 5 -23 5 -27 0 -3 4 -9 9 -12 13 -9
93 -175 93 -192 0 -8 5 -20 12 -27 7 -7 9 -12 4 -12 -4 0 -1 -7 8 -15 8 -9 13
-22 10 -30 -4 -8 -1 -15 5 -15 6 0 11 -9 11 -20 0 -11 4 -20 9 -20 6 0 8 -9 6
-19 -2 -11 3 -22 11 -25 7 -3 11 -12 8 -21 -4 -8 -1 -22 6 -30 6 -8 10 -20 8
-27 -3 -7 1 -24 8 -37 7 -14 11 -28 8 -33 -3 -4 0 -8 5 -8 6 0 11 -16 11 -35
0 -19 4 -35 9 -35 6 0 8 -10 6 -22 -3 -12 0 -27 5 -34 6 -6 11 -28 12 -48 1
-20 5 -36 9 -36 4 0 6 -21 5 -46 -1 -26 2 -48 9 -50 6 -3 10 -29 9 -64 -1 -33
2 -63 7 -66 5 -3 9 -90 9 -195 l0 -189 -457 2 c-399 3 -458 5 -459 18 -2 27
-16 60 -26 60 -5 0 -7 4 -3 9 3 5 1 12 -5 16 -5 3 -10 17 -10 31 0 13 -4 24
-9 24 -5 0 -12 10 -16 23 -4 12 -8 24 -9 27 -1 3 -7 14 -13 25 -6 11 -13 29
-14 40 -2 11 -10 26 -17 33 -7 8 -10 18 -7 23 4 5 1 9 -5 9 -7 0 -10 6 -7 14
3 8 -1 17 -9 20 -8 3 -13 9 -12 13 3 15 -14 63 -23 63 -5 0 -6 6 -3 14 3 7 -2
16 -10 19 -10 4 -13 13 -9 23 3 9 2 19 -3 23 -5 3 -18 26 -28 51 -10 25 -31
73 -47 106 -17 34 -31 71 -34 82 -4 23 25 46 69 58 14 3 26 11 26 17 0 6 3 7
7 4 3 -4 15 0 25 10 10 9 18 13 18 9 0 -4 12 1 28 12 15 11 38 23 52 27 14 4
33 17 42 27 9 11 20 20 25 20 19 1 39 13 56 31 9 11 17 17 17 12 0 -4 7 -2 15
5 8 7 15 9 15 4 0 -4 10 2 23 13 12 11 49 37 82 58 33 21 72 50 88 64 15 13
27 22 27 18 0 -7 12 3 101 82 25 23 50 41 55 42 5 0 36 29 69 64 33 35 63 64
66 64 4 1 9 -8 12 -19z m-4845 -49 c18 -19 35 -32 38 -29 3 4 24 -14 46 -38
22 -24 43 -42 48 -41 4 1 20 -10 36 -26 45 -42 97 -83 117 -90 9 -4 17 -11 17
-17 0 -5 9 -10 20 -10 11 0 20 -5 20 -10 0 -6 8 -14 18 -18 37 -16 92 -54 92
-65 0 -6 3 -7 7 -4 3 4 15 0 25 -10 10 -9 18 -12 18 -8 0 5 11 -2 25 -15 14
-13 25 -19 25 -14 0 5 4 5 8 -1 8 -11 86 -49 89 -44 2 2 10 -6 18 -19 9 -12
21 -20 26 -17 5 4 9 1 9 -4 0 -6 9 -11 20 -11 11 0 20 -5 20 -11 0 -6 7 -9 15
-5 8 3 20 -1 27 -8 15 -14 15 -15 46 -22 25 -7 27 -21 7 -48 -8 -11 -15 -27
-15 -35 0 -9 -11 -38 -25 -66 -13 -27 -30 -65 -37 -82 -7 -18 -17 -33 -21 -33
-5 0 -6 -4 -2 -9 3 -5 1 -12 -5 -16 -5 -3 -10 -15 -10 -25 0 -10 -9 -34 -19
-52 -11 -18 -21 -42 -23 -53 -2 -11 -5 -22 -9 -25 -8 -8 -39 -77 -39 -89 0 -6
-4 -11 -9 -11 -5 0 -11 -18 -15 -40 -4 -25 -12 -40 -21 -40 -8 0 -12 -6 -9
-14 3 -8 1 -17 -5 -21 -6 -3 -11 -17 -11 -31 0 -15 -4 -23 -11 -19 -6 4 -10 1
-9 -6 3 -21 -11 -59 -21 -59 -5 0 -8 -6 -6 -12 1 -10 -96 -14 -455 -16 l-458
-2 0 159 c0 88 4 162 9 165 5 4 8 32 7 64 -1 31 2 63 8 70 5 8 9 38 8 68 -1
39 2 53 10 48 8 -5 9 3 6 27 -4 22 -1 42 8 54 8 10 12 27 9 36 -3 10 -1 20 5
24 5 3 10 19 10 35 0 16 5 32 10 35 6 3 8 17 6 31 -3 16 0 27 10 31 7 3 11 10
8 15 -4 5 -2 20 4 31 19 40 25 62 23 80 -1 9 3 17 8 17 6 0 11 11 11 24 0 14
4 27 9 30 5 3 12 22 15 41 4 19 11 35 16 35 6 0 10 9 10 21 0 11 11 40 25 65
13 24 21 44 17 44 -4 0 -1 4 7 9 7 5 15 17 16 27 4 33 17 64 26 64 5 0 14 12
19 26 12 30 18 27 78 -35z m1307 -715 c6 -2 17 -6 25 -9 16 -6 58 -15 99 -22
13 -2 27 -7 30 -12 3 -4 17 -8 31 -7 14 0 30 -3 35 -7 11 -7 71 -18 120 -21
17 -1 33 -6 36 -11 4 -5 28 -9 53 -9 25 1 46 -2 46 -7 0 -4 19 -7 43 -7 23 1
51 -2 62 -8 11 -5 52 -11 90 -12 39 -2 97 -7 130 -11 l59 -8 0 -235 -1 -235
-576 -3 c-555 -2 -577 -1 -577 16 0 10 3 22 8 26 4 4 8 11 8 14 6 28 18 52 26
52 6 0 8 9 5 20 -3 11 -1 20 3 20 5 0 10 10 12 23 2 12 9 21 15 20 6 -1 9 6 6
17 -3 12 0 20 7 20 7 0 10 8 7 20 -3 10 -2 20 2 22 12 6 51 85 44 92 -3 3 -1
6 5 6 7 0 12 8 12 18 0 10 5 23 12 30 7 7 8 12 3 12 -4 0 0 9 10 20 10 11 15
20 10 20 -4 0 -2 7 5 15 6 8 9 19 5 25 -3 5 1 13 9 16 9 3 14 10 11 14 -3 4 5
19 16 34 14 17 18 33 14 47 -6 19 -4 21 11 15 11 -5 24 -9 29 -10z m2187 -10
c15 -7 32 -40 29 -58 -1 -5 4 -8 9 -8 6 0 10 -8 10 -18 0 -23 22 -72 33 -72 5
0 6 -4 2 -9 -3 -5 -1 -12 5 -16 5 -3 10 -17 10 -31 0 -13 5 -24 10 -24 6 0 10
-3 9 -7 -2 -16 14 -53 22 -53 5 0 9 -11 9 -24 0 -14 5 -28 10 -31 6 -4 8 -11
5 -16 -4 -5 -2 -9 3 -9 9 0 22 -27 27 -55 3 -17 40 -90 48 -96 5 -3 8 -9 8
-13 -1 -9 9 -39 20 -59 9 -16 -20 -17 -568 -15 l-578 3 -1 238 -1 237 48 0
c27 0 49 4 49 8 0 4 34 8 75 9 41 0 81 5 88 10 6 5 38 8 70 7 31 -1 57 3 57 8
0 5 18 8 39 7 21 -2 45 2 53 8 7 5 28 9 46 8 17 -1 32 2 32 7 0 4 18 8 40 8
22 0 40 4 40 9 0 4 10 8 23 7 12 -1 31 4 43 11 11 7 23 10 27 7 6 -6 76 15 91
28 10 8 30 6 58 -6z m-3165 -1041 c-7 -14 -16 -25 -20 -25 -5 0 -6 -4 -2 -10
3 -5 -6 -32 -20 -59 -14 -28 -26 -60 -28 -71 -2 -12 -11 -30 -20 -41 -10 -11
-15 -24 -12 -28 2 -5 -2 -14 -10 -21 -8 -7 -12 -16 -10 -21 3 -4 -3 -22 -14
-40 -11 -18 -18 -36 -15 -41 3 -4 0 -8 -5 -8 -6 0 -11 -7 -11 -15 0 -8 -5 -15
-11 -15 -6 0 -8 -7 -5 -16 3 -9 -3 -29 -15 -45 -11 -16 -17 -29 -13 -29 4 0 0
-8 -9 -18 -10 -10 -15 -21 -12 -24 3 -3 -3 -22 -14 -42 -12 -20 -17 -36 -13
-36 4 0 -1 -5 -11 -11 -9 -6 -15 -15 -11 -20 3 -6 -6 -33 -20 -62 -14 -29 -33
-73 -43 -99 -13 -35 -21 -44 -30 -36 -7 6 -13 17 -13 24 0 8 -4 14 -10 14 -5
0 -10 9 -10 20 0 11 -5 20 -11 20 -5 0 -7 5 -4 10 3 6 1 10 -4 10 -6 0 -11 9
-11 20 0 11 -5 20 -11 20 -6 0 -9 7 -5 15 3 8 1 15 -4 15 -6 0 -10 7 -10 15 0
8 -5 15 -11 15 -6 0 -9 6 -6 14 3 8 -1 17 -9 20 -9 3 -13 10 -10 14 3 5 -4 26
-14 48 -11 21 -20 42 -20 47 0 5 -6 23 -14 40 -23 53 -29 71 -30 90 -1 10 -5
21 -11 25 -9 7 -13 21 -19 67 -1 11 -7 29 -13 40 -6 11 -8 26 -6 33 3 6 0 12
-6 12 -6 0 -11 16 -11 35 0 19 -5 35 -10 35 -6 0 -8 11 -6 24 2 13 -2 41 -9
62 -7 22 -11 42 -8 46 2 5 159 8 348 8 l343 0 -11 -25z m4798 15 c3 -5 1 -10
-5 -10 -6 0 -10 -8 -9 -17 2 -10 -1 -31 -6 -48 -4 -16 -9 -37 -10 -45 -1 -8
-4 -22 -8 -30 -3 -8 -8 -26 -10 -40 -3 -14 -11 -43 -17 -65 -6 -22 -11 -48
-11 -57 0 -10 -4 -18 -10 -18 -5 0 -9 -11 -9 -25 0 -14 -4 -25 -10 -25 -5 0
-7 -6 -4 -14 3 -8 1 -17 -5 -21 -6 -3 -11 -17 -11 -31 0 -13 -4 -24 -10 -24
-6 0 -9 -3 -8 -7 1 -9 -6 -31 -30 -83 -8 -19 -15 -42 -15 -50 0 -8 -3 -17 -6
-20 -11 -8 -76 -144 -73 -152 1 -5 -3 -8 -8 -8 -6 0 -10 -6 -10 -14 0 -7 -7
-20 -16 -27 -14 -11 -19 -9 -34 11 -10 14 -16 28 -14 32 3 4 0 8 -5 8 -6 0
-11 9 -11 20 0 10 -11 39 -25 64 -14 25 -25 54 -25 65 0 12 -4 21 -10 21 -6 0
-10 3 -9 8 2 14 -13 52 -21 52 -7 0 -16 21 -25 55 -8 33 -18 55 -26 55 -5 0
-6 7 -3 15 4 8 1 15 -5 15 -6 0 -11 9 -11 19 0 11 -9 35 -20 54 -12 19 -23 45
-25 58 -3 12 -8 25 -13 28 -4 3 -7 13 -7 21 0 8 -8 24 -17 35 -10 10 -17 24
-15 29 2 6 -9 35 -25 64 -15 30 -26 58 -23 62 3 5 1 11 -5 15 -5 3 -10 13 -10
21 0 12 51 14 339 14 216 0 342 -4 346 -10z m-4065 -43 c0 -6 5 -6 13 0 14 10
107 10 125 -1 7 -4 17 -4 24 0 17 10 58 11 64 2 3 -5 10 -5 17 -1 16 10 58 10
63 1 3 -5 10 -5 17 -1 16 10 58 10 63 1 3 -5 10 -5 16 -1 16 9 218 10 218 0 0
-5 5 -5 12 -1 17 11 108 11 108 1 0 -5 5 -5 12 -1 17 11 108 11 108 1 0 -5 5
-5 12 -1 17 11 108 11 108 1 0 -5 5 -5 12 -1 7 4 34 8 60 9 47 0 48 -1 49 -30
1 -35 1 -514 0 -531 -1 -8 -12 -10 -33 -5 -27 6 -93 7 -93 1 0 -2 -74 -9 -140
-12 -33 -2 -62 -6 -65 -9 -3 -4 -32 -10 -65 -13 -119 -13 -130 -14 -156 -24
-15 -6 -30 -8 -33 -5 -3 3 -11 1 -18 -4 -12 -10 -56 -19 -115 -26 -12 -1 -25
-5 -29 -9 -4 -5 -18 -8 -31 -8 -13 0 -41 -8 -62 -18 -21 -10 -46 -17 -57 -16
-10 2 -23 -1 -29 -5 -5 -5 -22 -9 -37 -9 -23 0 -28 5 -28 24 0 13 -5 24 -11
24 -6 0 -8 9 -4 20 4 11 2 20 -4 20 -6 0 -11 9 -11 20 0 11 -5 20 -11 20 -6 0
-9 6 -6 13 2 6 -2 28 -9 49 -7 20 -10 39 -7 42 4 3 1 6 -6 6 -8 0 -11 7 -7 15
3 8 -1 21 -9 28 -7 8 -12 26 -11 41 2 14 -1 26 -5 26 -5 0 -9 13 -9 29 0 17
-5 33 -11 36 -6 4 -8 13 -5 20 2 7 -2 24 -9 39 -8 15 -12 33 -9 41 3 7 -2 25
-11 38 -11 17 -13 27 -6 32 8 4 7 13 -1 28 -17 31 -17 101 0 107 21 9 52 7 52
-3z m1660 -1 c0 -5 5 -5 13 0 6 5 39 8 72 7 33 -2 68 -3 78 -3 9 0 37 0 62 0
25 0 52 0 60 0 8 0 34 1 58 3 23 1 47 -2 54 -6 7 -5 18 -5 25 -1 17 10 58 12
64 2 3 -5 10 -5 17 -1 16 10 58 10 63 1 3 -5 10 -5 17 -1 16 10 58 10 63 1 3
-5 10 -5 16 -1 16 9 218 10 218 0 0 -5 5 -5 12 -1 18 11 108 11 108 0 0 -6 5
-5 11 1 18 18 49 3 49 -23 0 -13 -4 -24 -8 -24 -4 0 -9 -15 -10 -32 -5 -73
-14 -128 -22 -128 -5 0 -8 -12 -7 -27 2 -16 -3 -34 -9 -40 -7 -7 -10 -21 -7
-32 3 -10 0 -22 -6 -25 -6 -4 -11 -20 -11 -37 0 -16 -4 -29 -9 -29 -6 0 -8 -9
-6 -21 2 -12 -2 -28 -10 -35 -8 -8 -12 -21 -8 -29 3 -9 0 -22 -7 -30 -7 -9
-10 -18 -7 -22 4 -3 0 -15 -8 -25 -7 -11 -11 -27 -8 -34 3 -8 0 -14 -6 -14 -6
0 -11 -11 -11 -25 0 -14 -5 -25 -11 -25 -5 0 -8 -4 -4 -9 3 -5 1 -12 -5 -16
-5 -3 -10 -17 -10 -31 0 -20 -3 -23 -17 -15 -30 16 -92 37 -134 45 -27 5 -74
18 -89 23 -8 3 -24 7 -35 9 -11 1 -34 7 -52 12 -17 6 -34 8 -37 4 -3 -3 -6 -1
-6 5 0 5 -12 9 -27 9 -16 -1 -39 3 -53 9 -14 6 -38 10 -55 9 -16 -1 -34 2 -40
6 -5 5 -27 8 -48 8 -21 0 -43 4 -50 9 -6 5 -39 9 -72 8 -33 -1 -65 2 -71 7 -6
4 -22 8 -35 8 -129 -3 -146 0 -157 25 -6 14 -8 25 -4 25 4 0 6 114 6 252 -1
139 0 255 1 258 5 9 105 5 105 -4z m-2060 -370 c0 -14 4 -27 9 -30 4 -3 7 -17
6 -31 -2 -14 1 -27 6 -31 5 -3 9 -18 9 -35 0 -16 5 -29 10 -29 6 0 9 -10 6
-23 -2 -12 2 -31 9 -41 8 -10 11 -24 8 -32 -3 -8 0 -14 7 -14 7 0 10 -6 7 -14
-3 -7 0 -22 7 -32 7 -11 12 -28 10 -39 -2 -11 0 -22 4 -25 7 -5 27 -53 42
-102 7 -24 5 -28 -21 -37 -16 -5 -29 -15 -29 -21 0 -6 -5 -8 -10 -5 -6 3 -23
-3 -39 -14 -15 -11 -31 -18 -35 -14 -3 3 -6 2 -6 -4 0 -9 -26 -21 -40 -19 -3
1 -25 -13 -49 -31 -24 -18 -48 -30 -53 -27 -4 3 -8 0 -8 -5 0 -6 -7 -11 -15
-11 -8 0 -15 -5 -15 -10 0 -6 -8 -14 -17 -17 -26 -10 -117 -65 -124 -76 -4 -5
-14 -7 -23 -5 -15 3 -15 6 4 26 12 13 20 31 18 40 -3 10 1 23 9 30 7 7 11 17
8 23 -4 5 -1 9 4 9 6 0 11 7 11 15 0 8 5 15 11 15 6 0 8 9 4 20 -4 13 -1 22 9
26 8 3 12 12 9 20 -3 8 0 14 7 14 7 0 10 6 7 14 -3 8 1 17 9 20 8 3 14 11 13
18 -2 21 13 58 24 58 6 0 8 3 4 6 -3 3 3 22 14 41 11 20 17 38 14 41 -3 3 3
14 12 25 10 10 17 20 16 21 -6 4 11 46 19 46 5 0 8 6 6 13 -1 6 10 38 25 70
15 32 25 62 22 67 -3 4 -2 10 2 12 14 6 43 65 43 87 0 12 5 21 10 21 6 0 10
-11 10 -24z m3467 -8 c4 -7 8 -15 9 -18 11 -37 18 -50 26 -50 5 0 6 -9 3 -20
-3 -11 -3 -20 2 -20 9 0 33 -48 33 -67 0 -7 5 -13 11 -13 5 0 8 -4 4 -9 -3 -5
1 -16 9 -24 8 -8 12 -17 9 -20 -3 -3 4 -21 16 -40 11 -19 18 -37 14 -41 -4 -4
-3 -10 3 -14 13 -9 59 -120 56 -134 -1 -5 2 -8 6 -8 5 0 14 -16 22 -35 8 -19
18 -35 23 -35 4 0 5 -9 2 -20 -3 -11 -2 -20 3 -20 9 0 27 -47 24 -62 -1 -5 5
-8 13 -8 9 0 12 -6 9 -15 -4 -8 -1 -22 6 -30 7 -9 10 -18 7 -21 -3 -3 3 -14
14 -25 21 -21 25 -39 8 -39 -5 0 -7 5 -4 10 3 6 -1 10 -9 10 -9 0 -16 5 -16
12 0 6 -3 8 -6 5 -4 -4 -20 5 -36 18 -16 14 -35 25 -42 25 -7 0 -21 9 -31 20
-10 11 -22 17 -26 14 -5 -3 -9 -1 -9 4 0 5 -8 13 -17 16 -33 13 -63 31 -63 38
0 5 -5 8 -11 8 -15 0 -83 32 -90 42 -3 5 -16 11 -29 13 -13 2 -26 9 -29 13 -3
5 -17 13 -31 17 -39 12 -51 25 -40 45 5 9 7 20 3 23 -3 4 -1 12 4 19 11 14 27
68 25 81 -1 4 4 10 11 13 8 3 12 16 9 33 -2 16 1 32 7 35 6 4 11 18 11 32 0
13 4 24 9 24 5 0 8 8 7 18 -2 9 3 26 11 38 7 11 10 23 7 27 -3 3 -2 12 2 19 5
7 9 24 10 38 1 13 5 25 11 27 5 2 7 17 5 33 -4 31 10 41 25 18z m-1966 -577
c1 -9 2 -253 2 -543 2 -417 -1 -528 -10 -528 -7 0 -13 5 -13 11 0 5 -4 7 -10
4 -5 -3 -10 -3 -10 2 0 4 -17 19 -38 33 -20 14 -51 40 -68 58 -17 17 -36 32
-41 32 -15 0 -333 332 -333 348 0 5 -11 18 -25 30 -14 12 -25 28 -25 35 0 8
-9 22 -20 32 -11 10 -18 21 -15 24 2 4 -7 15 -21 25 -13 11 -24 23 -24 28 0 5
-10 24 -23 41 -29 41 -42 63 -68 112 -12 22 -25 42 -29 45 -3 3 -13 20 -21 38
-8 17 -18 32 -24 32 -5 1 5 8 24 16 19 8 40 13 47 10 7 -3 18 2 24 9 7 8 16
12 22 9 5 -3 15 0 23 6 8 7 21 10 29 7 7 -3 22 1 33 8 11 8 28 12 39 11 10 -2
24 0 29 4 6 5 24 9 40 11 17 2 35 6 40 10 6 4 25 6 44 5 18 -1 35 3 38 10 2 7
19 11 41 9 20 -1 48 2 62 7 14 5 51 9 83 9 31 0 57 3 57 8 0 4 32 7 70 8 57 0
70 -3 71 -16z m597 6 c6 -5 16 -6 21 -2 5 3 12 1 16 -5 4 -7 12 -7 24 0 10 5
21 6 25 3 7 -7 32 -12 86 -16 20 -2 41 -7 49 -11 7 -5 30 -8 52 -8 21 0 41 -3
44 -8 3 -4 18 -7 35 -6 18 1 30 -3 30 -10 0 -7 15 -11 40 -9 23 1 40 -2 40 -8
0 -6 3 -8 6 -4 4 3 20 -1 36 -9 16 -8 32 -13 37 -10 4 3 19 -1 34 -9 14 -7 28
-11 30 -8 3 2 17 -3 30 -12 l26 -16 -21 -35 c-11 -19 -24 -34 -30 -34 -5 0 -7
-4 -4 -9 3 -5 -7 -27 -24 -49 -16 -22 -26 -43 -23 -46 4 -3 2 -6 -4 -6 -6 0
-13 -8 -17 -17 -8 -24 -28 -55 -48 -74 -10 -9 -15 -19 -12 -22 4 -3 -6 -17
-20 -30 -14 -13 -26 -29 -26 -35 0 -6 -11 -19 -25 -30 -14 -11 -25 -26 -25
-33 0 -7 -13 -24 -29 -38 -15 -14 -30 -31 -32 -38 -5 -16 -310 -323 -321 -323
-5 0 -22 -14 -38 -30 -16 -17 -33 -30 -37 -30 -4 0 -21 -14 -38 -30 l-31 -30
-1 537 c-1 296 0 543 2 549 4 12 123 13 143 1z m-1778 -330 c0 -5 9 -22 21
-38 11 -16 18 -29 15 -29 -9 0 34 -77 50 -90 7 -7 11 -16 8 -21 -3 -5 0 -9 6
-9 6 0 9 -4 5 -9 -3 -5 0 -13 5 -16 6 -4 15 -17 21 -28 13 -30 32 -61 44 -69
6 -4 7 -8 3 -8 -4 0 11 -26 32 -57 22 -32 46 -66 53 -77 6 -10 22 -29 35 -42
12 -13 22 -28 22 -35 0 -6 11 -20 26 -31 14 -11 22 -23 19 -26 -3 -3 9 -21 27
-39 17 -18 28 -33 23 -33 -5 0 11 -19 35 -42 25 -23 44 -45 42 -50 -1 -5 8
-18 20 -30 21 -18 21 -19 3 -13 -11 4 -24 8 -30 9 -5 1 -19 7 -30 13 -11 5
-26 8 -32 6 -7 -3 -13 1 -13 7 0 7 -8 10 -19 7 -12 -3 -22 1 -25 9 -3 8 -9 13
-13 13 -4 -1 -16 1 -25 4 -38 15 -53 20 -58 22 -3 2 -15 6 -27 10 -13 4 -23
11 -23 16 0 5 -5 9 -11 9 -16 0 -103 43 -107 53 -2 4 -12 7 -23 7 -10 0 -19 5
-19 11 0 5 -4 7 -10 4 -5 -3 -10 -1 -10 4 0 6 -7 11 -16 11 -9 0 -25 9 -35 21
-9 11 -21 21 -26 21 -12 1 -37 11 -48 20 -5 4 -24 19 -41 33 -17 13 -33 22
-36 20 -3 -3 -13 4 -23 15 -10 11 -23 20 -29 20 -6 0 -21 12 -33 27 -13 14
-26 24 -29 20 -3 -3 -17 7 -31 24 -14 16 -28 27 -32 25 -4 -3 -31 19 -60 49
l-53 53 28 18 c16 10 32 23 36 29 4 5 11 10 15 10 10 0 76 46 85 60 4 5 8 6 8
1 0 -5 10 -1 23 10 12 11 39 29 60 39 20 11 37 22 37 26 0 7 39 22 53 20 4 -1
7 3 7 8 0 9 38 24 53 22 4 -1 10 6 13 14 6 14 8 13 20 -2 7 -10 14 -22 14 -26z
m2840 23 c0 -5 3 -9 8 -8 10 2 46 -14 53 -24 3 -5 16 -11 30 -13 13 -3 25 -9
27 -15 2 -5 12 -10 23 -10 10 0 19 -4 19 -10 0 -5 20 -19 45 -30 25 -11 45
-25 45 -30 0 -6 6 -10 13 -10 8 0 25 -9 38 -20 38 -31 42 -34 71 -49 37 -19
44 -45 19 -70 -12 -12 -25 -21 -31 -21 -5 0 -22 -13 -37 -30 -14 -16 -32 -30
-39 -30 -7 0 -21 -11 -32 -25 -11 -14 -25 -25 -32 -25 -7 0 -21 -10 -31 -22
-19 -21 -45 -38 -86 -57 -13 -6 -23 -14 -23 -19 0 -4 -16 -14 -35 -22 -19 -8
-35 -18 -35 -22 0 -5 -4 -6 -10 -3 -5 3 -10 2 -10 -3 0 -5 -19 -17 -42 -28
-24 -10 -52 -27 -63 -37 -11 -10 -30 -20 -42 -23 -13 -4 -23 -11 -23 -16 0 -6
-7 -8 -15 -4 -8 3 -15 2 -15 -2 0 -6 -16 -14 -75 -37 -11 -5 -22 -9 -25 -10
-3 -2 -15 -6 -27 -10 -13 -4 -23 -12 -23 -17 0 -5 -4 -7 -9 -4 -4 3 -25 -3
-45 -14 -31 -15 -69 -28 -106 -35 -3 0 -15 -6 -27 -13 -34 -19 -28 -1 12 38
19 19 35 38 35 43 0 5 18 25 40 46 22 21 38 40 35 43 -3 3 8 17 24 31 16 13
27 28 24 31 -4 3 8 20 25 37 18 17 30 34 27 38 -2 4 5 13 15 21 10 8 17 17 15
20 -3 4 4 15 15 25 11 10 20 24 20 32 0 7 4 13 10 13 5 0 12 11 16 25 3 14 10
22 15 20 5 -3 11 6 15 20 3 14 11 25 16 25 6 0 8 6 5 14 -3 8 1 17 9 20 14 5
39 53 36 69 -1 4 2 7 7 7 8 0 24 37 22 53 -1 4 4 7 9 7 6 0 10 6 10 13 0 7 9
23 21 35 11 12 17 27 14 32 -3 6 1 10 9 10 10 0 13 6 10 15 -4 8 -1 15 6 15 7
0 10 7 6 15 -3 9 0 15 9 15 8 0 15 -4 15 -10z"/>
</g>
</svg>
