<?xml version="1.0" standalone="no"?>
<!DOCTYPE svg PUBLIC "-//W3C//DTD SVG 20010904//EN">
<svg version="1.0" xmlns="http://www.w3.org/2000/svg"
 width="2092.000000pt" height="2092.000000pt" viewBox="0 0 2092.000000 2092.000000"
 preserveAspectRatio="xMidYMid meet">
<metadata>
Created by potrace 1.11, written by Peter Selinger 2001-2013
</metadata>
<g transform="translate(0.000000,2092.000000) scale(0.100000,-0.100000)"
fill="#000000" stroke="none">
<path d="M7450 9781 l0 -1761 125 0 125 0 2 1452 3 1451 1392 -1476 c766 -812
1397 -1478 1403 -1482 7 -4 10 569 10 1754 l0 1761 -125 0 -125 0 -2 -1450 -3
-1449 -1180 1250 c-649 688 -1189 1261 -1200 1272 -182 195 -409 433 -416 435
-5 2 -9 -696 -9 -1757z"/>
<path d="M3680 9779 c-415 -958 -757 -1745 -758 -1750 -2 -6 54 -8 134 -7
l137 3 237 550 238 550 739 3 739 2 224 -555 224 -555 134 0 c123 0 134 1 129
18 -2 9 -196 487 -429 1062 -234 575 -551 1354 -704 1732 -153 379 -281 688
-284 688 -3 0 -345 -784 -760 -1741z m1055 371 c164 -404 300 -743 302 -752 5
-17 -30 -18 -627 -18 -502 0 -631 3 -627 13 2 6 143 332 312 722 169 391 313
725 321 744 8 19 16 32 18 30 2 -2 137 -335 301 -739z"/>
<path d="M12227 11473 c-4 -3 -7 -60 -7 -125 l0 -118 650 0 650 0 0 -1605 0
-1605 125 0 125 0 0 1605 0 1605 645 0 645 0 0 125 0 125 -1413 0 c-778 0
-1417 -3 -1420 -7z"/>
<path d="M17000 9750 l0 -1730 125 0 125 0 0 1730 0 1730 -125 0 -125 0 0
-1730z"/>
</g>
</svg>
